<?xml version="1.0" encoding="utf-8"?>
<!-- Generator: Adobe Illustrator 16.0.4, SVG Export Plug-In . SVG Version: 6.00 Build 0)  -->
<!DOCTYPE svg PUBLIC "-//W3C//DTD SVG 1.1//EN" "http://www.w3.org/Graphics/SVG/1.1/DTD/svg11.dtd">
<svg version="1.1" id="Layer_1" xmlns="http://www.w3.org/2000/svg" xmlns:xlink="http://www.w3.org/1999/xlink" x="0px" y="0px" viewBox="0 0 24 16" enable-background="new 0 0 24 16" xml:space="preserve">
<g>
	<g>
		<path fill="#FFFFFF" d="M5.499,11.081L12,15.78l6.501-4.699V0.22H5.499V11.081z"/>
		<path fill="#FFFFFF" d="M16.4,13.429c0-0.072-0.06-0.132-0.132-0.132H16.08v0.445h0.084v-0.182h0.06l0.084,0.182H16.4
			l-0.088-0.188C16.363,13.535,16.4,13.486,16.4,13.429z M16.269,13.478h-0.104V13.38h0.104c0.026,0,0.048,0.022,0.048,0.049
			C16.316,13.456,16.295,13.478,16.269,13.478z"/>
		<path fill="#FFFFFF" d="M16.24,13.13c-0.215,0-0.389,0.175-0.389,0.39c0,0.214,0.174,0.389,0.389,0.389s0.389-0.175,0.389-0.389
			C16.629,13.305,16.455,13.13,16.24,13.13z M16.24,13.824c-0.169,0-0.306-0.137-0.306-0.305c0-0.169,0.137-0.306,0.306-0.306
			s0.306,0.137,0.306,0.306C16.546,13.688,16.409,13.824,16.24,13.824z"/>
	</g>
	<g>
		<path fill="#ACAEA9" d="M5.928,10.862L12,15.25l6.071-4.388V8.189H5.928V10.862z"/>
		<path fill="#ACAEA9" d="M5.928,7.814h12.144V0.648H5.928V7.814z"/>
	</g>
	<g>
		<path display="none" d="M6.311,10.667L12,14.778l5.688-4.111V8.855H6.311V10.667z M9.955,10.35c0,0,0.344,0.46,0.408,0.546
			c0.142-0.173,0.411-0.388,0.775-0.508c-0.029-0.07-0.161-0.393-0.161-0.393s0.203,0.082,0.291,0.117
			c-0.01-0.017-0.019-0.035-0.019-0.035s0.312,0.017,0.36,0.019c0.025-0.043,0.195-0.345,0.219-0.385
			c-0.021-0.035-0.085-0.148-0.093-0.16c-0.01-0.009-0.09-0.077-0.09-0.077l0.104-0.197l0.22,0.016c0,0,0.004,0.103,0.005,0.122
			L12,9.455l0.025-0.041c0.001-0.02,0.004-0.122,0.004-0.122l0.22-0.016l0.104,0.197c0,0-0.08,0.068-0.091,0.077
			c-0.007,0.012-0.071,0.125-0.092,0.16c0.023,0.04,0.193,0.342,0.219,0.385c0.049-0.002,0.36-0.019,0.36-0.019
			s-0.01,0.019-0.019,0.035c0.088-0.035,0.291-0.117,0.291-0.117s-0.133,0.322-0.161,0.393c0.364,0.12,0.634,0.335,0.774,0.508
			c0.065-0.086,0.408-0.546,0.408-0.546l0.089,0.038l-0.423,2.419c0,0-0.601,0.154-1.71,0.154c-1.11,0-1.711-0.154-1.711-0.154
			l-0.421-2.419L9.955,10.35z"/>
		<path fill="#111111" d="M6.311,10.667L12,14.778l5.688-4.111V8.855H6.311V10.667z"/>
		<path fill="#111111" d="M6.311,7.25h11.378V1.031H6.311V7.25z"/>
	</g>
	<g>
		<path fill="#ACAEA9" d="M7.705,5.491v-1.35c0-1.566,0.364-2.126,0.364-2.126H6.652c0,0,0.364,0.56,0.364,2.126
			c0,1.565-0.364,2.125-0.364,2.125h4.628c0,0,0.386-0.525,0.386-1.325c0,0-0.527,0.55-1.768,0.55H7.705z"/>
		<path fill="#ACAEA9" d="M12.072,2.016c0,0,0.365,0.56,0.365,2.126c0,1.565-0.365,2.125-0.365,2.125h1.053V4.683h3.171v1.584h1.052
			c0,0-0.365-0.56-0.365-2.125c0-1.566,0.365-2.126,0.365-2.126H12.072z"/>
	</g>
	<g>
		<path fill="#FFFFFF" d="M12.23,2.113c0.111,0.261,0.306,0.878,0.306,2.028c0,1.149-0.194,1.767-0.306,2.026h0.796V4.585h3.368
			v1.583c0.134,0,0.592,0,0.795,0c-0.111-0.26-0.305-0.877-0.305-2.026c0-1.15,0.193-1.768,0.305-2.028
			C16.901,2.113,12.52,2.113,12.23,2.113z"/>
		<path fill="#FFFFFF" d="M7.606,5.59V4.142c0-1.15,0.193-1.768,0.305-2.028H6.811c0.111,0.261,0.305,0.878,0.305,2.028
			c0,1.149-0.193,1.767-0.305,2.026h4.417c0.072-0.114,0.28-0.488,0.328-1.017C11.304,5.324,10.777,5.59,9.898,5.59H7.606z"/>
	</g>
	<path fill="#ACAEA9" d="M13.026,4.006h3.368V2.692h-3.368V4.006z"/>
	<rect x="13.125" y="2.79" width="3.171" height="1.117"/>
	<g>
		<path fill="#FFFFFF" d="M13.71,12.807l0.423-2.419l-0.089-0.038c0,0-0.343,0.46-0.408,0.546c-0.141-0.173-0.41-0.388-0.774-0.508
			c0.028-0.07,0.161-0.393,0.161-0.393s-0.203,0.082-0.291,0.117c0.009-0.017,0.019-0.035,0.019-0.035s-0.312,0.017-0.36,0.019
			c-0.025-0.043-0.195-0.345-0.219-0.385c0.021-0.035,0.085-0.148,0.092-0.16c0.011-0.009,0.091-0.077,0.091-0.077l-0.104-0.197
			l-0.22,0.016c0,0-0.003,0.103-0.004,0.122L12,9.455l-0.025-0.041c-0.001-0.02-0.005-0.122-0.005-0.122l-0.22-0.016l-0.104,0.197
			c0,0,0.08,0.068,0.09,0.077c0.008,0.012,0.072,0.125,0.093,0.16c-0.023,0.04-0.193,0.342-0.219,0.385
			c-0.049-0.002-0.36-0.019-0.36-0.019s0.009,0.019,0.019,0.035c-0.088-0.035-0.291-0.117-0.291-0.117s0.132,0.322,0.161,0.393
			c-0.364,0.12-0.634,0.335-0.775,0.508c-0.064-0.086-0.408-0.546-0.408-0.546l-0.087,0.038l0.421,2.419
			c0,0,0.601,0.154,1.711,0.154C13.109,12.961,13.71,12.807,13.71,12.807z"/>
	</g>
	<g>
		<path fill="#111111" d="M11.649,12.85c0,0-0.55-0.051-0.876-0.177c0.223,0.032,0.584,0.076,0.914,0.076c0,0-0.446-0.046-0.742-0.157
			c0.224,0.029,0.542,0.063,0.835,0.063c0,0-0.436-0.045-0.731-0.154c0.265-0.057,0.591-0.102,0.951-0.102
			c0.359,0,0.686,0.045,0.95,0.102c-0.296,0.109-0.73,0.154-0.73,0.154c0.292,0,0.61-0.034,0.834-0.063
			c-0.296,0.111-0.742,0.157-0.742,0.157c0.33,0,0.691-0.044,0.914-0.076C12.9,12.799,12.35,12.85,12.35,12.85
			c0.81-0.021,1.289-0.142,1.289-0.142l0.371-2.158l-0.376,0.503c-0.165-0.27-0.486-0.486-0.897-0.606l0.113-0.276l-0.581,0.261
			v-0.144L12,9.825l-0.27,0.462v0.144l-0.582-0.261l0.114,0.276c-0.411,0.12-0.731,0.337-0.897,0.606L9.989,10.55l0.372,2.158
			C10.361,12.708,10.841,12.828,11.649,12.85z"/>
	</g>
	<g>
		<path fill="#ACAEA9" d="M11.73,10.483l-0.49-0.221l0.49,1.195V10.483z"/>
		<path fill="#ACAEA9" d="M12.269,10.483v0.975l0.491-1.195L12.269,10.483z"/>
		<path fill="#ACAEA9" d="M12.219,10.463L12,10.177l-0.22,0.286L12,10.724L12.219,10.463z"/>
		<path fill="#ACAEA9" d="M13.719,11.953c-0.097-0.016-0.171-0.104-0.171-0.211c0-0.117,0.091-0.213,0.201-0.213
			c0.015,0,0.028,0.001,0.042,0.005l0.137-0.795l-0.595,0.795c0.013,0.381-0.08,0.534-0.08,0.534s-0.199-0.08-0.422-0.125
			l-0.077-0.385c-0.034,0-0.064-0.011-0.091-0.028c-0.001,0-0.002-0.001-0.003-0.001l-0.196,0.355c0,0-0.246-0.023-0.37-0.023
			l0.111-0.342L12,10.99l-0.205,0.529l0.11,0.342c-0.124,0-0.37,0.023-0.37,0.023l-0.181-0.329
			c-0.012,0.002-0.023,0.003-0.035,0.003c-0.025,0-0.049-0.006-0.07-0.016l-0.081,0.4c-0.222,0.045-0.422,0.125-0.422,0.125
			s-0.092-0.153-0.08-0.534l-0.595-0.795l0.137,0.795c0.014-0.004,0.027-0.005,0.042-0.005c0.111,0,0.201,0.096,0.201,0.213
			c0,0.106-0.074,0.195-0.171,0.211l0.118,0.688c0.188-0.072,0.817-0.29,1.602-0.29c0.783,0,1.414,0.218,1.601,0.29L13.719,11.953z"
			/>
	</g>
	<g fill="#111111">
		<path d="M12.092,10.454c0-0.051-0.042-0.093-0.092-0.093c-0.052,0-0.092,0.042-0.092,0.093s0.04,0.092,0.092,0.092
			C12.05,10.546,12.092,10.505,12.092,10.454z"/>
		<path d="M12.496,10.549c-0.017-0.021-0.043-0.036-0.072-0.036c-0.051,0-0.092,0.041-0.092,0.093c0,0.042,0.029,0.079,0.069,0.089
			c0.015,0.009,0.031,0.015,0.049,0.015c0.048,0,0.087-0.038,0.087-0.086C12.537,10.592,12.521,10.564,12.496,10.549z"/>
		<path d="M11.608,10.549c-0.017-0.021-0.043-0.036-0.073-0.036c-0.051,0-0.092,0.041-0.092,0.093c0,0.042,0.03,0.079,0.07,0.089
			c0.014,0.009,0.03,0.015,0.049,0.015c0.048,0,0.087-0.038,0.087-0.086C11.649,10.592,11.633,10.564,11.608,10.549z"/>
	</g>
	<g>
		<path fill="#FFFFFF" d="M10.433,11.143l0.103,0.136c0.249-0.487,0.748-0.542,0.748-0.542c-0.428,0.159-0.606,0.409-0.664,0.655
			l0.096,0.127c0,0-0.012,0.345,0.057,0.489c0.021-0.009,0.046-0.018,0.074-0.026c-0.223-0.917,0.5-1.086,0.5-1.086
			c-0.511,0.264-0.463,0.733-0.359,1.043c0.043-0.012,0.09-0.023,0.141-0.035l0.077-0.381c-0.066-0.025-0.113-0.089-0.113-0.164
			c0-0.098,0.079-0.177,0.177-0.177c0.057,0,0.107,0.027,0.14,0.068c0.047,0.03,0.079,0.083,0.079,0.143
			c0,0.062-0.035,0.117-0.087,0.146l0.162,0.296c0.086-0.009,0.174-0.015,0.264-0.018l-0.523-1.275
			C10.896,10.66,10.578,10.879,10.433,11.143z"/>
		<path fill="#FFFFFF" d="M12.615,11.51c-0.052-0.031-0.087-0.087-0.087-0.151c0-0.098,0.079-0.177,0.177-0.177
			c0.058,0,0.107,0.027,0.14,0.068c0.048,0.03,0.079,0.083,0.079,0.143c0,0.076-0.052,0.141-0.122,0.16l0.071,0.351
			c0.051,0.012,0.097,0.023,0.14,0.035c0.104-0.31,0.151-0.779-0.359-1.043c0,0,0.723,0.169,0.501,1.086
			c0.027,0.009,0.053,0.018,0.074,0.026c0.067-0.145,0.056-0.489,0.056-0.489l0.097-0.127c-0.059-0.246-0.236-0.496-0.665-0.655
			c0,0,0.499,0.055,0.748,0.542l0.103-0.136c-0.145-0.264-0.463-0.482-0.869-0.602l-0.523,1.275c0.09,0.003,0.178,0.009,0.264,0.018
			L12.615,11.51z"/>
		<path fill="#FFFFFF" d="M11.268,11.207c-0.083,0-0.151,0.068-0.151,0.151s0.068,0.151,0.151,0.151s0.15-0.068,0.15-0.151
			S11.351,11.207,11.268,11.207z"/>
		<path fill="#FFFFFF" d="M12.856,11.358c0-0.083-0.068-0.151-0.151-0.151s-0.15,0.068-0.15,0.151s0.067,0.151,0.15,0.151
			S12.856,11.441,12.856,11.358z"/>
		<path fill="#FFFFFF" d="M10.312,11.742c0-0.036-0.027-0.065-0.062-0.065c-0.006,0-0.012,0-0.017,0.002l0.021,0.129
			C10.287,11.805,10.312,11.777,10.312,11.742z"/>
		<path fill="#FFFFFF" d="M10.25,11.553c-0.013,0-0.025,0.002-0.038,0.005l0.004,0.024c0.012-0.004,0.022-0.005,0.034-0.005
			c0.085,0,0.152,0.074,0.152,0.165c0,0.083-0.057,0.151-0.131,0.163l0.005,0.024c0.085-0.014,0.151-0.092,0.151-0.188
			C10.428,11.638,10.348,11.553,10.25,11.553z"/>
		<path fill="#FFFFFF" d="M13.688,11.742c0,0.035,0.024,0.062,0.057,0.065l0.022-0.129c-0.006-0.002-0.011-0.002-0.018-0.002
			C13.715,11.677,13.688,11.706,13.688,11.742z"/>
		<path fill="#FFFFFF" d="M13.724,11.93l0.004-0.024c-0.074-0.012-0.131-0.08-0.131-0.163c0-0.091,0.068-0.165,0.152-0.165
			c0.012,0,0.022,0.001,0.034,0.005l0.005-0.024c-0.014-0.003-0.026-0.005-0.039-0.005c-0.098,0-0.177,0.085-0.177,0.189
			C13.572,11.838,13.638,11.916,13.724,11.93z"/>
		<path fill="#FFFFFF" d="M12.078,10.454c0-0.043-0.035-0.079-0.078-0.079c-0.044,0-0.079,0.036-0.079,0.079
			c0,0.044,0.035,0.078,0.079,0.078C12.043,10.532,12.078,10.498,12.078,10.454z"/>
		<path fill="#FFFFFF" d="M12.424,10.684c0.044,0,0.078-0.035,0.078-0.078c0-0.044-0.034-0.079-0.078-0.079
			c-0.043,0-0.079,0.035-0.079,0.079C12.345,10.648,12.381,10.684,12.424,10.684z"/>
		<path fill="#FFFFFF" d="M11.535,10.684c0.044,0,0.079-0.035,0.079-0.078c0-0.044-0.035-0.079-0.079-0.079
			c-0.043,0-0.078,0.035-0.078,0.079C11.457,10.648,11.492,10.684,11.535,10.684z"/>
	</g>
	<g fill="#111111">
		<circle cx="11.268" cy="11.358" r="0.134"/>
		<circle cx="12.705" cy="11.358" r="0.134"/>
		<path d="M11.995,11.581L11.995,11.581c0.01,0.005,0.021,0.008,0.034,0.008c0.044,0,0.08-0.036,0.08-0.08
			c0-0.031-0.018-0.059-0.045-0.071c0.012,0.015,0.02,0.033,0.02,0.054C12.084,11.541,12.044,11.581,11.995,11.581z"/>
		<circle cx="11.995" cy="11.492" r="0.072"/>
		<circle cx="12" cy="10.454" r="0.07"/>
		<circle cx="12.424" cy="10.605" r="0.07"/>
		<circle cx="11.535" cy="10.605" r="0.07"/>
		<path d="M11.582,12.194c-0.001,0-0.001,0-0.002,0c0.011,0.005,0.023,0.009,0.036,0.009c0.044,0,0.08-0.036,0.08-0.081
			c0-0.031-0.019-0.058-0.045-0.071c0.012,0.016,0.02,0.034,0.02,0.055C11.671,12.155,11.631,12.194,11.582,12.194z"/>
		<path d="M10.897,12.315c-0.001,0-0.002,0-0.002,0c0.011,0.007,0.022,0.009,0.035,0.009c0.045,0,0.08-0.035,0.08-0.079
			c0-0.032-0.018-0.06-0.045-0.072c0.013,0.016,0.02,0.033,0.02,0.055C10.985,12.276,10.945,12.315,10.897,12.315z"/>
		<path d="M12.368,12.194C12.367,12.194,12.367,12.194,12.368,12.194c0.009,0.005,0.021,0.009,0.034,0.009
			c0.045,0,0.08-0.036,0.08-0.081c0-0.031-0.019-0.058-0.045-0.071c0.012,0.016,0.02,0.034,0.02,0.055
			C12.457,12.155,12.417,12.194,12.368,12.194z"/>
		<path d="M13.054,12.315C13.054,12.315,13.054,12.315,13.054,12.315c0.01,0.007,0.021,0.009,0.034,0.009
			c0.045,0,0.08-0.035,0.08-0.079c0-0.032-0.019-0.06-0.045-0.072c0.013,0.016,0.02,0.033,0.02,0.055
			C13.143,12.276,13.104,12.315,13.054,12.315z"/>
		<circle cx="11.582" cy="12.106" r="0.072"/>
		<circle cx="10.897" cy="12.227" r="0.072"/>
		<circle cx="12.368" cy="12.106" r="0.072"/>
		<circle cx="13.054" cy="12.227" r="0.072"/>
		<polygon points="10.218,11.502 10.304,11.506 10.267,11.395 		"/>
		<polygon points="10.417,11.566 10.442,11.451 10.346,11.52 		"/>
		<polygon points="10.563,11.591 10.446,11.6 10.483,11.677 		"/>
		<polygon points="10.483,11.806 10.597,11.772 10.491,11.72 		"/>
		<polygon points="10.473,11.837 10.426,11.909 10.541,11.933 		"/>
		<polygon points="10.305,11.978 10.388,12.062 10.384,11.943 		"/>
		<polygon points="13.733,11.395 13.694,11.506 13.781,11.502 		"/>
		<polygon points="13.653,11.52 13.558,11.451 13.582,11.566 		"/>
		<polygon points="13.554,11.6 13.436,11.591 13.516,11.677 		"/>
		<polygon points="13.509,11.72 13.402,11.772 13.516,11.806 		"/>
		<polygon points="13.458,11.933 13.573,11.909 13.526,11.837 		"/>
		<polygon points="13.615,11.943 13.611,12.062 13.694,11.978 		"/>
		<polygon points="11.71,10.271 12,9.772 12.289,10.271 12.521,10.271 12.548,10.216 12.319,10.216 12.03,9.719 12.172,9.476 
			12.206,9.441 12.183,9.405 12.13,9.41 12.122,9.454 12,9.665 11.878,9.454 11.869,9.41 11.816,9.405 11.793,9.441 11.827,9.476 
			11.969,9.719 11.681,10.216 11.451,10.216 11.479,10.271 		"/>
	</g>
</g>
</svg>
