<?xml version="1.0" encoding="utf-8"?>
<!-- Generator: Adobe Illustrator 16.0.4, SVG Export Plug-In . SVG Version: 6.00 Build 0)  -->
<!DOCTYPE svg PUBLIC "-//W3C//DTD SVG 1.1//EN" "http://www.w3.org/Graphics/SVG/1.1/DTD/svg11.dtd">
<svg version="1.1" id="Layer_1" xmlns="http://www.w3.org/2000/svg" xmlns:xlink="http://www.w3.org/1999/xlink" x="0px" y="0px" viewBox="0 0 24 16" enable-background="new 0 0 24 16" xml:space="preserve">
<g>
	<path fill="#FFFFFF" d="M15.063,2.266H3.742v0.358c0,0.994,0.477,1.872,1.197,2.388H3.742V5.37c0,0.994,0.477,1.872,1.197,2.388
		H3.742v0.358c0,0.994,0.477,1.871,1.197,2.387H3.742v0.358c0,1.584,1.208,2.873,2.691,2.873h2.563l1.891-3.197
		c0.979,1.326,2.524,2.118,4.176,2.118c2.864,0,5.194-2.33,5.194-5.194C20.258,4.596,17.928,2.266,15.063,2.266z"/>
	<path fill="#FFFFFF" d="M11.045,11.588c-0.207,0-0.375,0.168-0.375,0.375s0.168,0.375,0.375,0.375s0.375-0.168,0.375-0.375
		S11.252,11.588,11.045,11.588z M11.045,12.258c-0.163,0-0.295-0.132-0.295-0.295s0.132-0.295,0.295-0.295s0.295,0.132,0.295,0.295
		S11.208,12.258,11.045,12.258z"/>
	<path fill="#FFFFFF" d="M11.199,11.876c0-0.07-0.058-0.127-0.127-0.127h-0.181v0.428h0.08v-0.174h0.058l0.081,0.174h0.089l-0.085-0.181
		C11.164,11.979,11.199,11.931,11.199,11.876z M11.072,11.923h-0.101v-0.094h0.101c0.025,0,0.047,0.021,0.047,0.047
		C11.119,11.901,11.098,11.923,11.072,11.923z"/>
	<path d="M15.063,2.624H4.204c0,1.388,1.045,2.515,2.333,2.515h4.092c0.063,0,0.115,0.052,0.115,0.115
		c0,0.064-0.052,0.116-0.115,0.116H4.204c0,1.389,1.045,2.515,2.333,2.515h2.467C9.068,7.885,9.12,7.937,9.12,8
		S9.068,8.116,9.004,8.116h-4.8c0,1.388,1.045,2.514,2.333,2.514H7.38c0.064,0,0.116,0.052,0.116,0.116s-0.052,0.115-0.116,0.115
		H4.204c0,1.389,1.045,2.515,2.333,2.515h2.256l4.216-7.128c0.416-0.702,1.181-1.174,2.055-1.174c1.317,0,2.386,1.068,2.386,2.387
		c0,1.317-1.068,2.386-2.386,2.386c-1.301,0-2.358-1.042-2.385-2.336l-1.596,2.696c0.873,1.263,2.33,2.09,3.98,2.09
		c2.671,0,4.838-2.165,4.838-4.836C19.901,4.789,17.734,2.624,15.063,2.624z"/>
	<circle fill="#F74902" cx="15.063" cy="7.46" r="1.373"/>
</g>
</svg>
