<?xml version="1.0" encoding="utf-8"?>
<!-- Generator: Adobe Illustrator 16.0.4, SVG Export Plug-In . SVG Version: 6.00 Build 0)  -->
<!DOCTYPE svg PUBLIC "-//W3C//DTD SVG 1.1//EN" "http://www.w3.org/Graphics/SVG/1.1/DTD/svg11.dtd">
<svg version="1.1" id="Layer_1" xmlns="http://www.w3.org/2000/svg" xmlns:xlink="http://www.w3.org/1999/xlink" x="0px" y="0px" viewBox="0 0 24 16" enable-background="new 0 0 24 16" xml:space="preserve">
<g>
	<g>
		<path fill="#002654" d="M20.529,1.183H6.434c0.934,1.456,1.245,1.935,0.45,1.913L5.713,1.183H3.471l5.093,8.32
			C8.495,9.5,8.426,9.496,8.359,9.496c-2.088,0-3.725,1.169-3.725,2.661s1.636,2.66,3.725,2.66c2.086,0,3.723-1.168,3.723-2.66
			c0-0.377-0.106-0.742-0.313-1.083L10.628,9.21c0,0,0.919,0.185,1.608-0.133l-0.332-0.43c0,0,1.4,0.13,2.691-0.255l-0.437-0.464
			c0,0,1.964-0.05,3.324-1.795h-0.135c0,0,1.014-0.489,1.44-1.571h-0.13c0,0,0.648-0.483,0.869-1.478h-0.192
			C19.335,3.083,20.369,2.356,20.529,1.183z"/>
	</g>
	<g>
		<path fill="#FFFFFF" d="M20.181,1.429H6.89c1.089,1.65,0.768,1.916-0.142,1.916L5.575,1.429H3.909l5.117,8.36
			C8.808,9.76,8.585,9.742,8.359,9.742c-1.951,0-3.479,1.06-3.479,2.415c0,1.354,1.527,2.414,3.479,2.414
			c1.95,0,3.477-1.061,3.477-2.414c0-0.332-0.093-0.653-0.277-0.954L10.11,8.836c0,0,1.008,0.332,1.715,0.111l-0.447-0.575
			c0,0,1.664,0.138,2.777-0.087l-0.53-0.562c0,0,2.479-0.023,3.403-1.554h-0.425c0,0,1.169-0.163,1.759-1.425h-0.431
			c0,0,1.006-0.463,1.277-1.517h-0.467C18.742,3.227,19.786,2.534,20.181,1.429z"/>
		<polygon fill="#FFFFFF" points="11.209,14.255 11.321,14.255 11.321,14.591 11.361,14.591 11.361,14.255 11.479,14.255 
			11.479,14.215 11.209,14.215 		"/>
		<polygon fill="#FFFFFF" points="11.694,14.521 11.597,14.215 11.532,14.215 11.532,14.591 11.573,14.591 11.573,14.271 
			11.674,14.591 11.714,14.591 11.815,14.271 11.815,14.591 11.855,14.591 11.855,14.215 11.79,14.215 		"/>
	</g>
	<path fill="#FCB514" d="M19.902,1.601H7.199c0.752,1.145,0.896,1.99-0.55,1.91l-1.169-1.91H4.218l5.157,8.423
		c-0.326-0.071-0.666-0.11-1.015-0.11c-1.823,0-3.306,1.006-3.306,2.243c0,1.235,1.483,2.241,3.306,2.241
		c1.822,0,3.305-1.006,3.305-2.241c0-0.301-0.085-0.591-0.251-0.864L9.732,8.549c0,0,1.059,0.371,1.791,0.293
		c0,0-0.333-0.411-0.48-0.666c0,0,1.205,0.145,2.778,0.007L13.23,7.558c0.049,0.001,0.1,0.002,0.155,0.002
		c2.553,0,3.319-1.308,3.319-1.308h-0.693c0,0,1.723-0.439,2.091-1.425h-0.639c0,0,1.363-0.667,1.497-1.425h-0.778
		C18.182,3.4,19.542,2.632,19.902,1.601z"/>
	<path fill="#002F87" d="M7.525,1.784c1.001,1.635-0.001,2.004-0.983,1.904L5.376,1.784H4.543l5.226,8.536
		c-0.425-0.142-0.904-0.223-1.41-0.223c-1.725,0-3.124,0.922-3.124,2.06c0,1.137,1.398,2.059,3.124,2.059
		c1.723,0,3.122-0.922,3.122-2.059c0-0.272-0.081-0.531-0.225-0.769L9.318,8.224c0,0,1.251,0.435,1.829,0.435
		c0,0-0.263-0.336-0.422-0.697c0,0,1.499,0.161,2.699,0.068l-0.653-0.692c0,0,0.195,0.038,0.613,0.038
		c2.113,0,2.924-0.942,2.924-0.942h-6.281L9.935,6.283h5.211c0,0,2.124-0.406,2.637-1.276H9.154L9.062,4.858h7.941
		c0,0,1.479-0.713,1.691-1.276H8.281L8.189,3.433h9.572c0,0,1.395-0.727,1.849-1.649L7.525,1.784L7.525,1.784z"/>
</g>
</svg>
